<svg xmlns="http://www.w3.org/2000/svg" viewBox="0 0 538.36 600.06"><title>Asset 1</title><g id="Layer_2" data-name="Layer 2"><g id="Layer_1-2" data-name="Layer 1"><path d="M344,600.06H194c-.37-.92-.79-1.82-1.09-2.76q-88.47-274-176.94-548C10.75,33.21,5.33,17.15,0,1.06v-1H145.5L268.75,459.69a29,29,0,0,0,1.38-3.67c1.39-6.34,2.4-12.78,4.09-19Q332.76,220.93,391.35,4.89c1-3.69,2.49-4.9,6.4-4.89,45.16.16,90.33.1,135.49.11,1.56,0,3.11.19,5.11.33-.76,2.44-1.33,4.32-1.94,6.2Q478.71,184.67,421,362.7,382.5,481.38,344,600.06Z"/></g></g></svg>