<svg xmlns="http://www.w3.org/2000/svg" viewBox="0 0 261.23 144.11">
<title>Asset 2</title><g id="Layer_2" data-name="Layer 2">
<defs>
    <style>
      .cls-1 {
        fill: #1e1e1e;
      }
    </style>
  </defs>



<g id="Layer_1-2" data-name="Layer 1" >


<path class="cls-1" d="M0,144Q0,72.56,0,1.1C0,.2.2,0,1.1,0Q66.44,0,131.78,0c.19.48.39,1,.55,1.45L169.8,117.56q4.05,12.56,8.11,25.11c.44,1.36.39,1.43-1,1.44H1.7C1.14,144.11.58,144.05,0,144Z"/>
<path class="cls-1" d="M261.14,0c0,.64.08,1.28.08,1.91q0,70,0,140c0,2.38.19,2.18-2.22,2.18H216.06c-1.78,0-1.8,0-1.25-1.74L253.54,23q3.51-10.83,7-21.67c.13-.42.23-.85.34-1.27Z"/>
<path class="cls-1" d="M226.1,0,206.86,71q-4.55,16.78-9.09,33.56c-.43,1.58-.71,3.2-1.07,4.8-.08.34-.08.81-.55.8s-.44-.52-.52-.83c-8.92-36.21-19.25-72-28.7-108.12-.1-.39-.23-.76-.35-1.15Z"/></g></g></svg>